PathFileType	4	(X/Y/Z)	pose_F01_0-76.trc
DataRate	CameraRate	NumFrames	NumMarkers	Units	OrigDataRate	OrigDataStartFrame	OrigNumFrames
30	30	8	21	m	30	50	76
Frame#	Time	CHip			RHip			RKnee			RAnkle			RBigToe			RSmallToe			RHeel			LHip			LKnee			LAnkle			LBigToe			LSmallToe			LHeel			Neck			Nose			RShoulder			RElbow			RWrist			LShoulder			LElbow			LWrist			
		X1	Y1	Z1	X2	Y2	Z2	X3	Y3	Z3	X4	Y4	Z4	X5	Y5	Z5	X6	Y6	Z6	X7	Y7	Z7	X8	Y8	Z8	X9	Y9	Z9	X10	Y10	Z10	X11	Y11	Z11	X12	Y12	Z12	X13	Y13	Z13	X14	Y14	Z14	X15	Y15	Z15	X16	Y16	Z16	X17	Y17	Z17	X18	Y18	Z18	X19	Y19	Z19	X20	Y20	Z20	X21	Y21	Z21	
50	1.6666666666666667	-0.22777589524370678	1.7867987112842816	-0.4293940584163355	-0.23487300306353967	1.7855386415235552	-0.36606058061545765	-0.2633389104065227	1.7020348459788157	-0.36552992140090423													-0.21614077513838642	1.739838078357371	-0.450743078521296	-0.24892851627819929	1.7058264642091547	-0.5004415998221132	-0.23550843022900994	1.5829109213471357	-0.6215982896202044	-0.17028561346170792	1.6133197204629854	-0.5672687202432097	-0.16737423823496864	1.6159780090195262	-0.5618821839124222	-0.18412138578234377	1.6087663315614742	-0.5207462805266488	-0.2432837708654005	1.773567682910944	-0.3592943424275616	-0.2484736441391132	1.9318054996450311	-0.4394157044996935	-0.2492473486818634	1.8051692791595018	-0.3067848473237191	-0.25152766363827767	1.8441724001686692	-0.27077951525430766	-0.3057775118951616	1.66332210605364	-0.22228612921193974	-0.22841859420528227	1.783339348945179	-0.4463699238552717	-0.2324999063333011	1.7506599249988581	-0.31862816190422205	-0.2350362854384484	1.9941264350065682	-0.5028285408672377
51	1.7	-0.22777589524370678	1.7867987112842816	-0.4293940584163355	-0.23487300306353967	1.7855386415235552	-0.36606058061545765	-0.2633389104065227	1.7020348459788157	-0.36552992140090423													-0.21614077513838642	1.739838078357371	-0.450743078521296	-0.24892851627819929	1.7058264642091547	-0.5004415998221132	-0.23550843022900994	1.5829109213471357	-0.6215982896202044	-0.16732420604238818	1.6078884898964132	-0.5605340247161796	-0.16491408164490748	1.6132961902248941	-0.55492782525951	-0.18412138578234377	1.6087663315614742	-0.5207462805266488	-0.2432837708654005	1.773567682910944	-0.3592943424275616	-0.2484736441391132	1.9318054996450311	-0.4394157044996935	-0.2492473486818634	1.8051692791595018	-0.3067848473237191	-0.25152766363827767	1.8441724001686692	-0.27077951525430766	-0.3057775118951616	1.66332210605364	-0.22228612921193974	-0.22841859420528227	1.783339348945179	-0.4463699238552717	-0.2351910945624338	1.760150783329701	-0.3009074698378748	-0.2350362854384484	1.9941264350065682	-0.5028285408672377
52	1.7333333333333334	-0.22777589524370678	1.7867987112842816	-0.4293940584163355	-0.23487300306353967	1.7855386415235552	-0.36606058061545765	-0.2633389104065227	1.7020348459788157	-0.36552992140090423													-0.21614077513838642	1.739838078357371	-0.450743078521296	-0.24892851627819929	1.7058264642091547	-0.5004415998221132	-0.23550843022900994	1.5829109213471357	-0.6215982896202044	-0.16858056563024196	1.6097798438816615	-0.5635982005167097	-0.16613453881001028	1.6147039195623885	-0.5581669930931672	-0.18412138578234377	1.6087663315614742	-0.5207462805266488	-0.2432837708654005	1.773567682910944	-0.3592943424275616	-0.2484736441391132	1.9318054996450311	-0.4394157044996935	-0.2492473486818634	1.8051692791595018	-0.3067848473237191	-0.25152766363827767	1.8441724001686692	-0.27077951525430766	-0.3057775118951616	1.66332210605364	-0.22228612921193974	-0.22841859420528227	1.783339348945179	-0.4463699238552717	-0.23731827888205023	1.7524539381766628	-0.3309575978763596	-0.2350362854384484	1.9941264350065682	-0.5028285408672377
53	1.7666666666666666	-0.22777589524370678	1.7867987112842816	-0.4293940584163355	-0.23487300306353967	1.7855386415235552	-0.36606058061545765	-0.2633389104065227	1.7020348459788157	-0.36552992140090423													-0.21614077513838642	1.739838078357371	-0.450743078521296	-0.24892851627819929	1.7058264642091547	-0.5004415998221132	-0.23550843022900994	1.5829109213471357	-0.6215982896202044	-0.16418976250640263	1.608691324144526	-0.5684163422031085	-0.16382086054497788	1.6139965563968042	-0.56060785760957	-0.18412138578234377	1.6087663315614742	-0.5207462805266488	-0.2432837708654005	1.773567682910944	-0.3592943424275616	-0.2484736441391132	1.9318054996450311	-0.4394157044996935	-0.2492473486818634	1.8051692791595018	-0.3067848473237191	-0.25152766363827767	1.8441724001686692	-0.27077951525430766	-0.3057775118951616	1.66332210605364	-0.22228612921193974	-0.22841859420528227	1.783339348945179	-0.4463699238552717	-0.23644175273132528	1.754172145256222	-0.33000441504231176	-0.2350362854384484	1.9941264350065682	-0.5028285408672377
54	1.8	-0.22777589524370678	1.7867987112842816	-0.4293940584163355	-0.23487300306353967	1.7855386415235552	-0.36606058061545765	-0.2633389104065227	1.7020348459788157	-0.36552992140090423													-0.21614077513838642	1.739838078357371	-0.450743078521296	-0.24892851627819929	1.7058264642091547	-0.5004415998221132	-0.23550843022900994	1.5829109213471357	-0.6215982896202044	-0.16306274428772513	1.6039002424389674	-0.5554451128035723	-0.1628560640487153	1.6100328015291256	-0.5478485367258882	-0.18412138578234377	1.6087663315614742	-0.5207462805266488	-0.2432837708654005	1.773567682910944	-0.3592943424275616	-0.2484736441391132	1.9318054996450311	-0.4394157044996935	-0.2492473486818634	1.8051692791595018	-0.3067848473237191	-0.25152766363827767	1.8441724001686692	-0.27077951525430766	-0.3057775118951616	1.66332210605364	-0.22228612921193974	-0.22841859420528227	1.783339348945179	-0.4463699238552717	-0.23556522658060036	1.7558903523357812	-0.329051232208264	-0.24523763253194625	1.7896394965316236	-0.4462806052886191
55	1.8333333333333333	-0.22777589524370678	1.7867987112842816	-0.4293940584163355	-0.23487300306353967	1.7855386415235552	-0.36606058061545765	-0.2633389104065227	1.7020348459788157	-0.36552992140090423													-0.21614077513838642	1.739838078357371	-0.450743078521296	-0.24892851627819929	1.7058264642091547	-0.5004415998221132	-0.23550843022900994	1.5829109213471357	-0.6215982896202044	-0.1615557353339105	1.6048099289732638	-0.5616543436255566	-0.16241538341842704	1.6117758213963698	-0.5570672160778425	-0.18412138578234377	1.6087663315614742	-0.5207462805266488	-0.2432837708654005	1.773567682910944	-0.3592943424275616	-0.2484736441391132	1.9318054996450311	-0.4394157044996935	-0.2492473486818634	1.8051692791595018	-0.3067848473237191	-0.25152766363827767	1.8441724001686692	-0.27077951525430766	-0.3057775118951616	1.66332210605364	-0.22228612921193974	-0.22841859420528227	1.783339348945179	-0.4463699238552717	-0.2346887004298754	1.75760855941534	-0.32809804937421616	-0.24644374648048095	1.7942527337102674	-0.43754867249234397
56	1.8666666666666667	-0.22777589524370678	1.7867987112842816	-0.4293940584163355	-0.23487300306353967	1.7855386415235552	-0.36606058061545765	-0.2633389104065227	1.7020348459788157	-0.36552992140090423													-0.21614077513838642	1.739838078357371	-0.450743078521296	-0.24892851627819929	1.7058264642091547	-0.5004415998221132	-0.23550843022900994	1.5829109213471357	-0.6215982896202044	-0.16679058315017828	1.608410650119668	-0.565611258469787	-0.16500483902114418	1.6125496954519285	-0.5635651202336192	-0.18412138578234377	1.6087663315614742	-0.5207462805266488	-0.2432837708654005	1.773567682910944	-0.3592943424275616	-0.2484736441391132	1.9318054996450311	-0.4394157044996935	-0.2492473486818634	1.8051692791595018	-0.3067848473237191	-0.25152766363827767	1.8441724001686692	-0.27077951525430766	-0.3057775118951616	1.66332210605364	-0.22228612921193974	-0.22841859420528227	1.783339348945179	-0.4463699238552717	-0.23381217427915046	1.7593267664948993	-0.32714486654016833	-0.24764986042901566	1.7988659708889114	-0.42881673969606876
57	1.9	-0.22777589524370678	1.7867987112842816	-0.4293940584163355	-0.23487300306353967	1.7855386415235552	-0.36606058061545765	-0.2633389104065227	1.7020348459788157	-0.36552992140090423													-0.21614077513838642	1.739838078357371	-0.450743078521296	-0.24892851627819929	1.7058264642091547	-0.5004415998221132	-0.23550843022900994	1.5829109213471357	-0.6215982896202044	-0.16629609244633478	1.6084920691332678	-0.5661373747809343	-0.1656627044235275	1.6122659855566877	-0.5586460102061267	-0.18412138578234377	1.6087663315614742	-0.5207462805266488	-0.2432837708654005	1.773567682910944	-0.3592943424275616	-0.2484736441391132	1.9318054996450311	-0.4394157044996935	-0.2492473486818634	1.8051692791595018	-0.3067848473237191	-0.25152766363827767	1.8441724001686692	-0.27077951525430766	-0.3057775118951616	1.66332210605364	-0.22228612921193974	-0.22841859420528227	1.783339348945179	-0.4463699238552717	-0.23293564812842554	1.7610449735744584	-0.3261916837061205	-0.24885597437755036	1.8034792080675555	-0.42008480689979355
